<svg xmlns="http://www.w3.org/2000/svg" width="287.646" height="147.04" viewBox="0 0 287.646 147.04">
  <g id="Group_10" data-name="Group 10" transform="translate(-118.32 -164.216)">
    <path id="Path_4" data-name="Path 4" d="M233.955,291.456a9.243,9.243,0,0,0-.41-1.15c-.17-.36-.33-.72-.53-1.06a11.235,11.235,0,0,0-1.5-2,13.652,13.652,0,0,0-1.69-1.53,27.2,27.2,0,0,0-3.76-2.3c-.04-.02-.09-.04-.13-.06-.13-.07-.27-.15-.41-.22a8.9,8.9,0,0,1-1.03-.6c-.15-.11-.3-.22-.44-.34-.2-.19-.39-.39-.57-.59a2.829,2.829,0,0,1-.2-.28,6.9,6.9,0,0,1-.48-.89c.53-.25,1.06-.52,1.58-.79.87-.45,1.74-.91,2.58-1.4.69-.41,1.37-.84,2.03-1.31a13.113,13.113,0,0,0,2.18-1.74,6.492,6.492,0,0,0,.67-.82,3.433,3.433,0,0,0,.37-.71,3.83,3.83,0,0,0,.19-.74,3.42,3.42,0,0,0-.32-1.91,11.256,11.256,0,0,0-.72-1.32c-.32-.52-.65-1.03-.98-1.53-.88-1.36-1.77-2.71-2.63-4.07-.81-1.26-1.62-2.53-2.37-3.83-.24-.42-.48-.84-.73-1.26a4.788,4.788,0,0,0-.26-.42,3.334,3.334,0,0,0-.66-.74,1.889,1.889,0,0,0-.5-.28,2.011,2.011,0,0,0-1.16-.51,2.143,2.143,0,0,0-1.52.45c-.14.11-.28.21-.43.31a26.612,26.612,0,0,1-2.88,1.79,30.771,30.771,0,0,1-3.31,1.5,38.67,38.67,0,0,1-4.71,1.42,32.552,32.552,0,0,1-4.05.66c-.72.07-1.44.12-2.17.15-.81.04-1.63.04-2.45.02a28.317,28.317,0,0,1-3.18-.33,39.929,39.929,0,0,1-4.68-1.15,38.643,38.643,0,0,1-4.26-1.65,43.171,43.171,0,0,1-4.48-2.44,22.227,22.227,0,0,1-1.86-1.37,31.023,31.023,0,0,1-2.56-2.44,25.536,25.536,0,0,1-1.74-2.15,28.681,28.681,0,0,1-1.67-2.69,18.68,18.68,0,0,1-1.77-4.75,33.383,33.383,0,0,1-.63-3.86,43.251,43.251,0,0,1-.18-5.34,35.363,35.363,0,0,1,.43-4.36,31.307,31.307,0,0,1,.87-3.56,36.143,36.143,0,0,1,1.62-4.11,35.519,35.519,0,0,1,1.9-3.48,28.389,28.389,0,0,1,1.83-2.52,32.391,32.391,0,0,1,2.43-2.54,39.67,39.67,0,0,1,3.49-2.84,26.241,26.241,0,0,1,2.72-1.69,32.763,32.763,0,0,1,3.41-1.56c.49-.18.98-.35,1.48-.51.46-.06.92-.13,1.38-.2.6-.11,1.19-.24,1.79-.34.68-.12,1.36-.21,2.04-.28a41.188,41.188,0,0,1,4.71-.16,46.108,46.108,0,0,1,5.63.59,36.413,36.413,0,0,1,4.5,1.09q.525.165,1.05.36c.66.24,1.3.51,1.98.71a3.749,3.749,0,0,0,.81.16,3.142,3.142,0,0,0,1.42-.22,3.391,3.391,0,0,0,1.41-1.27c.32-.47.61-.96.89-1.45.71-1.21,1.42-2.43,2.11-3.66.39-.71.78-1.44,1.15-2.17.19-.37.37-.74.55-1.11a.355.355,0,0,1,.04-.09c.19-.4.37-.81.54-1.22a10.887,10.887,0,0,0,.66-1.92,4.119,4.119,0,0,0,.11-1.05,2.606,2.606,0,0,0-.23-.99,3.436,3.436,0,0,0-.42-.69,5.951,5.951,0,0,0-.88-.93,16.907,16.907,0,0,0-3.62-2.41,33.226,33.226,0,0,0-4.87-2,45.456,45.456,0,0,0-5.53-1.34,47.35,47.35,0,0,0-5.82-.67,42.084,42.084,0,0,0-6.15.15c-.05,0-.09.01-.14.01-.12-.12-.24-.25-.36-.37-.08-.1-.17-.2-.24-.3a1.739,1.739,0,0,1-.11-.18,2.289,2.289,0,0,1-.1-.23,8.043,8.043,0,0,1-.21-.81c-.02-.1-.03-.19-.05-.29v-.21c.01-.1.03-.19.04-.29.04-.18.09-.35.14-.53.13-.35.27-.7.43-1.05.26-.51.56-1.01.86-1.5a13.967,13.967,0,0,0,1.16-2.28,12.163,12.163,0,0,0,.7-2.58,12.36,12.36,0,0,0,.09-2.58,12.084,12.084,0,0,0-.48-2.66,10.4,10.4,0,0,0-.96-2.28,9.107,9.107,0,0,0-.76-1.08,8.482,8.482,0,0,0-.92-.98,10.33,10.33,0,0,0-2.24-1.53,9.772,9.772,0,0,0-2.89-.88,10.891,10.891,0,0,0-3.07.04,9.668,9.668,0,0,0-3.85,1.41,7.758,7.758,0,0,0-1.16.89,11,11,0,0,0-2.68,3.86,9.738,9.738,0,0,0-.6,1.97,7.377,7.377,0,0,0-.15,1.05c-.02.21-.03.43-.03.64s.02.41.04.61a6.806,6.806,0,0,0,.47,1.89,7.914,7.914,0,0,0,.9,1.61,13.987,13.987,0,0,0,2.05,2.23c.59.54,1.2,1.05,1.74,1.63a6.766,6.766,0,0,1,.43.54,8.53,8.53,0,0,1,.46.76,9.277,9.277,0,0,1,.37.86q.105.315.18.63a2.35,2.35,0,0,1,.05.37c.01.17.01.35.01.52-.02.19-.04.38-.07.57-.04.16-.08.33-.13.49-.07.19-.15.38-.23.57-.08.15-.16.3-.25.45a4.585,4.585,0,0,1-.33.44c-.15.17-.32.33-.48.5s-.3.33-.45.5c-1.45.43-2.9.92-4.32,1.48-.93.36-1.86.74-2.78,1.15s-1.81.87-2.7,1.35q-1.3.705-2.55,1.5a1.619,1.619,0,0,0-.18-.1c-.13-.08-.25-.16-.37-.25-.08-.07-.16-.14-.24-.22a2.547,2.547,0,0,1-.26-.3,4.383,4.383,0,0,1-.4-.62,5.972,5.972,0,0,1-.31-.62,3.465,3.465,0,0,1-.19-.57,2.678,2.678,0,0,1-.07-.27c-.07-.33-.12-.66-.17-.99-.05-.35-.09-.71-.16-1.05a10.418,10.418,0,0,0-.35-1.21,5.373,5.373,0,0,0-.52-1.08,6.059,6.059,0,0,0-1.51-1.52,5.688,5.688,0,0,0-2.13-.99,3.96,3.96,0,0,0-2.95.5,3.814,3.814,0,0,0-.84.71,4.561,4.561,0,0,0-.62.87,4.271,4.271,0,0,0-.56,1.94,7.606,7.606,0,0,0,.01,1.17,6.12,6.12,0,0,0,.23,1.13,4.787,4.787,0,0,0,.36.88,3.779,3.779,0,0,0,.44.75,5.6,5.6,0,0,0,1.05,1.07,5.034,5.034,0,0,0,1.44.78c.47.17.95.31,1.42.51a4.934,4.934,0,0,1,.46.23c.16.1.32.21.47.32.13.11.25.21.37.32.09.1.18.21.26.31a2.9,2.9,0,0,1,.19.29l.15.3c.04.11.07.21.1.31a7.73,7.73,0,0,1,.16.81.308.308,0,0,1,.01.1c-.8.68-1.57,1.38-2.32,2.12a40.167,40.167,0,0,0-3.34,3.68c-.13.07-.27.13-.41.19-.16.06-.32.1-.48.15-.18.06-.35.12-.53.18-.27.06-.54.12-.82.16s-.56.05-.84.06a5.867,5.867,0,0,1-.59-.05,7.249,7.249,0,0,1-.78-.17,9.412,9.412,0,0,1-1.01-.37c-.45-.2-.89-.42-1.33-.67a14.13,14.13,0,0,1-1.44-.99,14.3,14.3,0,0,1-1.31-1.16,15.12,15.12,0,0,1-1.16-1.36,22.336,22.336,0,0,1-1.54-2.29c-.35-.63-.67-1.27-.97-1.93-.75-1.67-1.36-3.39-2.16-5.03-.2-.42-.42-.84-.65-1.25a14.368,14.368,0,0,0-.83-1.35,15.779,15.779,0,0,0-2.08-2.39,11.939,11.939,0,0,0-2.57-1.84,9.235,9.235,0,0,0-1.44-.63,12.169,12.169,0,0,0-1.55-.4c-.31-.05-.62-.1-.93-.12s-.6-.03-.91-.03a9.862,9.862,0,0,0-1.62.15,10.3,10.3,0,0,0-2.91.93,14.829,14.829,0,0,0-4.67,3.48,20.418,20.418,0,0,0-3.25,5.11,14.007,14.007,0,0,0-1.31,5.87,11.281,11.281,0,0,0,1.42,5.29,16.179,16.179,0,0,0,1.4,2.15,17.087,17.087,0,0,0,1.96,2.27,11.128,11.128,0,0,0,2.28,1.65,12.55,12.55,0,0,0,2.5,1c.08.02.17.05.25.07a17.582,17.582,0,0,0,5.5.47c1.79-.09,3.55-.38,5.32-.61a20.154,20.154,0,0,1,2.45-.16,13.082,13.082,0,0,1,1.65.12,7.671,7.671,0,0,1,1.06.22q.435.135.84.3a8.3,8.3,0,0,1,.84.43c.33.21.66.43.97.66.35.28.69.58,1.01.89.26.27.5.54.73.83a4.53,4.53,0,0,1,.3.46,6.528,6.528,0,0,1,.35.7,7.924,7.924,0,0,1,.26.78,9.13,9.13,0,0,1,.19,1.02,11.356,11.356,0,0,1,.09,1.3c-.01.25-.02.49-.04.74-.14.34-.27.68-.4,1.02-.43,1.15-.83,2.31-1.19,3.49l-.12.18c-.03.04-.07.09-.11.14s-.08.07-.12.11-.11.08-.16.12c-.03.02-.07.03-.1.05s-.05.02-.08.03-.05.01-.08.02-.05.01-.08.01h-.18l-.2-.03c-.11-.03-.22-.07-.34-.11a3.514,3.514,0,0,1-.4-.18,5.6,5.6,0,0,1-.61-.38,9.791,9.791,0,0,1-.99-.82,21.271,21.271,0,0,1-1.77-1.9c-.13-.15-.26-.31-.39-.47-.34-.41-.68-.83-1.02-1.24a15.97,15.97,0,0,0-1.3-1.43,8.972,8.972,0,0,0-1.58-1.17,7.34,7.34,0,0,0-.98-.47,7.511,7.511,0,0,0-1.17-.34,8.166,8.166,0,0,0-4.56.4,6.635,6.635,0,0,0-1.91,1.11,8.1,8.1,0,0,0-1.52,1.73,9.611,9.611,0,0,0-1.43,3.86,9.169,9.169,0,0,0-.11,2.22,7.123,7.123,0,0,0,.51,2.08,5.819,5.819,0,0,0,1.16,1.78,6.791,6.791,0,0,0,1.69,1.28,8.156,8.156,0,0,0,2.09.75,7.851,7.851,0,0,0,1.99.18,13.266,13.266,0,0,0,3.5-.85,19.524,19.524,0,0,1,2.24-.61c.34-.06.68-.1,1.03-.13.26-.01.52,0,.78.01a7.224,7.224,0,0,1,.79.13,8.832,8.832,0,0,1,.88.25,6.643,6.643,0,0,1,.61.27c.13.07.25.15.37.23a3.611,3.611,0,0,1,.3.25,3.513,3.513,0,0,1,.33.34c.14.18.28.36.4.55a4.631,4.631,0,0,1,.29.54,4.4,4.4,0,0,1,.21.5c.1.35.18.7.25,1.06a.585.585,0,0,0,.02.13c-.09,1-.15,2-.18,3.01-.07,1.73-.1,3.47-.03,5.21.02.69.07,1.38.13,2.07-.03.12-.06.25-.1.37a5.125,5.125,0,0,1-.25.65,2.437,2.437,0,0,1-.14.28c-.13.19-.27.38-.41.56-.21.24-.42.47-.65.69a6.888,6.888,0,0,1-.61.49,7.031,7.031,0,0,1-.74.46,9.887,9.887,0,0,1-1,.45,10.623,10.623,0,0,1-1.1.32c-.23.04-.47.08-.71.11h-.02c-.47.03-.94.03-1.41.02a14.866,14.866,0,0,1-1.88-.24,18.233,18.233,0,0,1-2.07-.47c-.84-.26-1.67-.59-2.49-.91-.79-.3-1.58-.62-2.36-.93a15.314,15.314,0,0,0-3.99-1.08,12.267,12.267,0,0,0-4.39.32c-.35.09-.69.2-1.04.31a.035.035,0,0,1-.02.01h-.01c-.37.14-.73.27-1.09.43a10.471,10.471,0,0,0-5.78,6.29,9.875,9.875,0,0,0-.31,1.06,10.682,10.682,0,0,0-.18,1.11,10.86,10.86,0,0,0-.01,2.28,12.594,12.594,0,0,0,1.08,4.17,14.22,14.22,0,0,0,2.4,3.63,9.249,9.249,0,0,0,3.69,2.5,8.538,8.538,0,0,0,2.06.46c.27.02.54.03.8.03a8.47,8.47,0,0,0,1.23-.08,11.571,11.571,0,0,0,3.82-1.19,17,17,0,0,0,1.79-1.08c.55-.39,1.09-.79,1.6-1.22,2.03-1.71,3.75-3.74,5.69-5.55a.01.01,0,0,0,.01-.01c.01,0,.01-.01.02-.01v-.01a.035.035,0,0,0,.02-.01,24.773,24.773,0,0,1,2.38-1.96,19.7,19.7,0,0,1,1.86-1.14c.5-.25,1-.47,1.52-.67.42-.14.83-.26,1.25-.36.32-.07.63-.11.95-.15a7.3,7.3,0,0,1,.81-.02,4.1,4.1,0,0,1,.49.06,6.007,6.007,0,0,1,.61.14c.17.06.34.12.5.19.14.07.28.14.41.22.1.06.21.13.31.2.52,1.24,1.12,2.44,1.76,3.63a48.048,48.048,0,0,0,3.03,4.94c.51.72,1.04,1.43,1.58,2.14a1.365,1.365,0,0,1-.02.19c-.02.08-.04.17-.06.25-.02.05-.04.11-.06.16a1.616,1.616,0,0,1-.1.18,2.435,2.435,0,0,1-.37.46c-.07.06-.14.11-.21.17-.12.08-.25.15-.38.22a4.415,4.415,0,0,1-.54.24c-.32.11-.65.2-.98.28-.6.12-1.2.2-1.81.26l-.78.06c-.75.05-1.49.09-2.23.21a10.067,10.067,0,0,0-2.24.63,10.848,10.848,0,0,0-2,1.11,12.284,12.284,0,0,0-1.86,1.6,9.88,9.88,0,0,0-2.38,4.21,9.31,9.31,0,0,0-.32,2.4,10.581,10.581,0,0,0,.3,2.44,10.734,10.734,0,0,0,2.21,4.39,7.4,7.4,0,0,0,1.66,1.45,10.5,10.5,0,0,0,1.04.57,7.866,7.866,0,0,0,1.18.42,8.05,8.05,0,0,0,2.29.3h.12a8.878,8.878,0,0,0,1.03-.05,7.915,7.915,0,0,0,1.29-.23,8.093,8.093,0,0,0,4.26-2.83,10.73,10.73,0,0,0,1.2-1.86,11.7,11.7,0,0,0,.83-2.2c.2-.7.36-1.4.49-2.11.11-.62.2-1.25.31-1.87v-.01a12.342,12.342,0,0,1,.3-1.34,9.788,9.788,0,0,1,.4-1.07c.08-.15.16-.31.24-.45q.15-.225.3-.42c.1-.12.2-.22.31-.33.14-.12.28-.24.43-.35.14-.09.27-.17.41-.25.18-.09.35-.17.53-.24a2.686,2.686,0,0,1,.27-.07,2.747,2.747,0,0,1,.28-.05c.13-.01.26-.01.4-.01.16.15.32.31.48.46a52.25,52.25,0,0,0,4.58,3.81,48.707,48.707,0,0,0,4.84,3.19c.43.25.86.5,1.3.73a4.018,4.018,0,0,1-.06.5c-.05.23-.11.45-.18.67q-.18.495-.39.96a10.868,10.868,0,0,1-.58,1,11.717,11.717,0,0,1-.86,1.11,15.339,15.339,0,0,1-1.28,1.27c-.46.39-.95.76-1.44,1.1a34.068,34.068,0,0,1-3.19,1.74,16.093,16.093,0,0,0-3.4,2.23,15.014,15.014,0,0,0-1.5,1.59,14.547,14.547,0,0,0-1.31,1.83,15.735,15.735,0,0,0-1.77,4.33,10.429,10.429,0,0,0-.14,4.65,9.5,9.5,0,0,0,.77,2.19,9.868,9.868,0,0,0,1.22,1.85,11.778,11.778,0,0,0,1.8,1.73,11.558,11.558,0,0,0,1.89,1.19,12.334,12.334,0,0,0,2.27.9,10.922,10.922,0,0,0,2.41.39c.18.01.35.01.53.01a11.182,11.182,0,0,0,4.38-.9,11.352,11.352,0,0,0,4.24-3.25,11.7,11.7,0,0,0,2.19-4.65,16.941,16.941,0,0,0,.32-2.45,16.038,16.038,0,0,0-.02-2.3,22.62,22.62,0,0,0-.77-4.63c-.18-.65-.39-1.3-.59-1.94-.22-.69-.41-1.38-.57-2.08-.1-.5-.17-1-.22-1.5a8.64,8.64,0,0,1-.01-.88,6.736,6.736,0,0,1,.29-1.53c.11-.31.23-.62.37-.92a8.46,8.46,0,0,1,.44-.77c.09-.12.18-.24.28-.36a3.967,3.967,0,0,1,.29-.29c.1-.08.19-.16.29-.24,1.39.5,2.81.93,4.25,1.32a46.009,46.009,0,0,0,5.96,1.24c.96.13,1.93.24,2.9.31v.07c0,.11,0,.21-.01.32-.02.08-.03.16-.05.24-.04.14-.09.27-.14.4a4.11,4.11,0,0,1-.21.42,4.168,4.168,0,0,1-.29.44c-.1.13-.21.25-.32.37-.28.26-.57.51-.85.78a9.822,9.822,0,0,0-1.01,1.13,8.6,8.6,0,0,0-1.54,3.33,6.272,6.272,0,0,0,.04,2.99,6.68,6.68,0,0,0,.34.98,6.6,6.6,0,0,0,2.51,2.85,6.972,6.972,0,0,0,1.79.84,7.817,7.817,0,0,0,2.2.33h.07a8.668,8.668,0,0,0,3.9-.95,6.987,6.987,0,0,0,1.73-1.26,5.347,5.347,0,0,0,1.12-1.7,6.751,6.751,0,0,0,.42-1.39,7.936,7.936,0,0,0,.14-1.46,8.781,8.781,0,0,0-.21-2.04,6.632,6.632,0,0,0-.67-1.85,5.614,5.614,0,0,0-1.2-1.54c-.34-.3-.73-.55-1.06-.86-.08-.09-.16-.19-.24-.28s-.14-.2-.2-.3a6.108,6.108,0,0,1-.35-.67,2.1,2.1,0,0,1-.13-.35,1.161,1.161,0,0,1-.04-.18c-.01-.1-.02-.2-.02-.3,0-.08.01-.16.01-.24,1.12-.04,2.24-.12,3.36-.22h.02a.01.01,0,0,1,.01-.01h.01a2.459,2.459,0,0,0,.26-.02l.23-.03.36-.03c.21-.03.42-.05.63-.08q.66-.075,1.32-.18c.94-.14,1.88-.3,2.82-.49q2.445-.5,4.83-1.21c.02.06.04.12.06.17a3.991,3.991,0,0,1,.11.47,3.231,3.231,0,0,1,.06.61,6.773,6.773,0,0,1-.02.78,10.917,10.917,0,0,1-.19,1.12l-.03.12c-.33,1.36-.86,2.67-1.27,4.01a14.4,14.4,0,0,0-.68,4.52,10.173,10.173,0,0,0,.27,2.19,12.534,12.534,0,0,0,.68,2.07,9.173,9.173,0,0,0,2.64,3.49,10.07,10.07,0,0,0,1.89,1.2,8.881,8.881,0,0,0,2.18.73,10.625,10.625,0,0,0,2.11.2,11.3,11.3,0,0,0,2.77-.34,11.734,11.734,0,0,0,2.36-.87,10.4,10.4,0,0,0,1.92-1.29,12.323,12.323,0,0,0,3.07-3.95,9.714,9.714,0,0,0,.65-7.06Z" fill="#c30020"/>
    <g id="Group_8" data-name="Group 8">
      <path id="Path_5" data-name="Path 5" d="M218.328,235.631c0,7.793-4.725,12.518-11.672,12.518-7.053,0-11.178-5.324-11.178-12.1,0-7.123,4.549-12.448,11.566-12.448C214.344,223.606,218.328,229.072,218.328,235.631Zm-17.173.317c0,4.655,2.186,7.934,5.783,7.934,3.632,0,5.713-3.456,5.713-8.075,0-4.267-2.045-7.934-5.748-7.934C203.271,227.873,201.155,231.329,201.155,235.948Z"/>
      <path id="Path_6" data-name="Path 6" d="M221.855,224.312a47.107,47.107,0,0,1,7.159-.494c3.526,0,5.994.529,7.687,1.869a6.033,6.033,0,0,1,2.186,4.972,6.305,6.305,0,0,1-4.2,5.853v.106c1.657.67,2.574,2.257,3.174,4.443.74,2.681,1.481,5.783,1.939,6.7h-5.5a29.763,29.763,0,0,1-1.658-5.536c-.634-2.962-1.657-3.773-3.843-3.808H227.18v9.344h-5.325Zm5.325,10.226H229.3c2.68,0,4.266-1.34,4.266-3.421,0-2.186-1.481-3.279-3.949-3.315a13.343,13.343,0,0,0-2.433.177Z"/>
      <path id="Path_7" data-name="Path 7" d="M264.382,235.631c0,7.793-4.725,12.518-11.672,12.518-7.052,0-11.178-5.324-11.178-12.1,0-7.123,4.549-12.448,11.566-12.448C260.4,223.606,264.382,229.072,264.382,235.631Zm-17.173.317c0,4.655,2.186,7.934,5.784,7.934,3.631,0,5.712-3.456,5.712-8.075,0-4.267-2.045-7.934-5.748-7.934C249.325,227.873,247.209,231.329,247.209,235.948Z"/>
      <path id="Path_8" data-name="Path 8" d="M267.909,247.761V223.994h6.277l4.937,8.71A68.878,68.878,0,0,1,283,240.85h.106a88.1,88.1,0,0,1-.459-9.909v-6.947h4.937v23.767h-5.642l-5.078-9.168a88.476,88.476,0,0,1-4.126-8.393l-.1.035c.141,3.139.211,6.489.211,10.368v7.158Z"/>
      <path id="Path_9" data-name="Path 9" d="M297.777,241.661l-1.693,6.1h-5.571l7.264-23.767h7.053l7.37,23.767h-5.783l-1.834-6.1Zm6.03-4.02-1.481-5.043c-.423-1.41-.846-3.174-1.2-4.584h-.07c-.353,1.41-.705,3.209-1.094,4.584l-1.41,5.043Z"/>
      <path id="Path_10" data-name="Path 10" d="M318.9,247.761l-7.617-23.767h5.889l2.891,10.05c.812,2.821,1.552,5.537,2.117,8.5h.105c.6-2.857,1.34-5.678,2.151-8.393l3.033-10.156h5.713l-8.005,23.767Z"/>
      <path id="Path_11" data-name="Path 11" d="M341.117,223.994v23.767h-5.4V223.994Z"/>
      <path id="Path_12" data-name="Path 12" d="M345.771,224.312a47.127,47.127,0,0,1,7.159-.494c3.526,0,5.995.529,7.687,1.869a6.031,6.031,0,0,1,2.187,4.972,6.306,6.306,0,0,1-4.2,5.853v.106c1.658.67,2.575,2.257,3.174,4.443.74,2.681,1.481,5.783,1.94,6.7h-5.5a29.763,29.763,0,0,1-1.658-5.536c-.634-2.962-1.657-3.773-3.843-3.808H351.1v9.344h-5.326Zm5.326,10.226h2.115c2.681,0,4.267-1.34,4.267-3.421,0-2.186-1.481-3.279-3.95-3.315a13.329,13.329,0,0,0-2.432.177Z"/>
      <path id="Path_13" data-name="Path 13" d="M371.867,223.994v13.682c0,4.09,1.552,6.171,4.3,6.171,2.821,0,4.373-1.974,4.373-6.171V223.994H385.9v13.329c0,7.335-3.7,10.826-9.908,10.826-6,0-9.521-3.314-9.521-10.9V223.994Z"/>
      <path id="Path_14" data-name="Path 14" d="M390.732,242.225a13.719,13.719,0,0,0,5.959,1.481c2.469,0,3.774-1.023,3.774-2.575,0-1.48-1.129-2.327-3.985-3.349-3.95-1.375-6.524-3.562-6.524-7.017,0-4.056,3.386-7.159,8.992-7.159a14.576,14.576,0,0,1,6.066,1.2l-1.2,4.337a11.3,11.3,0,0,0-4.971-1.128c-2.327,0-3.456,1.058-3.456,2.292,0,1.516,1.34,2.186,4.408,3.35,4.2,1.552,6.171,3.738,6.171,7.088,0,3.985-3.068,7.37-9.592,7.37a15.563,15.563,0,0,1-6.735-1.445Z"/>
    </g>
    <g id="Group_9" data-name="Group 9">
      <path id="Path_15" data-name="Path 15" d="M248.522,258.751v-.609h3.773v.822h-.213Zm3.773,19.169v.821h-3.773v-.609l3.56-.212Zm-.457-10.345c0-3.165,0-6.329-.06-9.433h1.034c-.061,3.1-.061,6.268-.061,10.041v.213c0,4.077,0,7.241.061,10.345h-1.034c.06-3.1.06-6.268.06-9.432Zm10.1-9.433.426.67H252.295v-.67h10.649l.3,4.655h-.73Zm-2.921,10.528h-6.724V268h6.724Zm4.655,5.416-.3,4.655H252.295v-.669h10.5l-.426.669.578-4.655Zm-4.929-6.055.3-2.982h.578v6.572h-.578l-.3-2.982Z"/>
      <path id="Path_16" data-name="Path 16" d="M266.809,278.193l-.091-3.073h.669l.457,3.134-.639-.213v-.517a7.07,7.07,0,0,0,4.016,1c2.83,0,4.259-1.369,4.259-3.164,0-1.491-.73-2.313-3.286-3.226l-1.429-.517c-2.161-.791-3.591-1.886-3.591-3.895,0-2.19,1.674-3.68,4.656-3.68a6.88,6.88,0,0,1,4.046,1.216l-.061,2.708h-.669l-.274-2.982.487.395v.457a5.954,5.954,0,0,0-3.621-1.186c-2.525,0-3.712,1.339-3.712,2.981,0,1.582,1.034,2.373,3.073,3.134l1.552.578c2.708,1,3.681,2.07,3.681,3.9,0,2.1-1.612,3.894-5.172,3.894A10.452,10.452,0,0,1,266.809,278.193Z"/>
      <path id="Path_17" data-name="Path 17" d="M284.822,278.406a4.644,4.644,0,0,0,2.312-.548l.213.427a3.927,3.927,0,0,1-2.617.851c-2.221,0-3.012-1.308-2.951-3.742,0-.578.031-1.126.031-1.947v-8.276h-3.347v-.609l3.955-.152-.639.395.335-4.9h.669l-.121,5.112v10.5C282.662,277.554,283.392,278.406,284.822,278.406Zm2.251-13.965v.73h-4.838v-.73Z"/>
      <path id="Path_18" data-name="Path 18" d="M292.276,278.741c.061-1.369.092-4.5.092-6.39v-1.49c0-1.887,0-3.8-.061-5.69h-2.86v-.609l3.529-.365.3.183-.06,3.529v4.442c0,1.887.03,5.021.09,6.39Zm3.469-.609v.609h-6.177v-.609l3.043-.182h.274Zm-4.138-19.99a.973.973,0,1,1,.974.974A.942.942,0,0,1,291.607,258.142Z"/>
      <path id="Path_19" data-name="Path 19" d="M301.343,278.741c.061-1.369.092-4.5.092-6.39v-1.49c0-2.13-.031-4.139-.092-5.69h-2.829v-.609l3.407-.365.305.183.061,3.225v4.746c0,1.887.03,5.021.091,6.39Zm3.469-.609v.609h-6.177v-.609l3.043-.182h.274Zm6.694-8.945v3.164c0,1.947.03,5.021.091,6.39h-1.035c.061-1.369.091-4.443.091-6.39v-3.194c0-3.073-1.277-4.26-2.768-4.26-1.4,0-3.286.608-5.811,3.59h-.457v-.639h.548l-.3.122c2.343-2.83,4.168-3.924,6.085-3.924C310.045,264.046,311.506,265.383,311.506,269.187Zm-.335,8.763,2.86.182v.609h-6.177v-.609l3.043-.182Zm9.554-8.763v3.164c0,1.947.03,5.021.091,6.39h-1.035c.062-1.369.092-4.443.092-6.39v-3.194c0-3.1-1.248-4.26-2.951-4.26-1.431,0-3.408.608-5.659,3.256h-.457v-.608h.517l-.3.09c2.07-2.495,4.017-3.589,5.964-3.589C319.325,264.046,320.725,265.415,320.725,269.187Zm-.335,8.763,2.86.182v.609h-6.177v-.609l3.043-.182Z"/>
      <path id="Path_20" data-name="Path 20" d="M330.644,271.012c1.7-.548,3.409-.882,4.96-1.247v.548a42.608,42.608,0,0,0-4.929,1.4c-2.464.913-3.651,2.1-3.651,3.681a2.783,2.783,0,0,0,3.073,2.951c1.734,0,3.2-.943,5.112-3.043l.334-.365v.761l-.274.3c-1.886,2.1-3.316,3.133-5.416,3.133a3.419,3.419,0,0,1-3.742-3.559C326.111,273.386,327.663,271.986,330.644,271.012Zm4.534,4.717v-6.847c0-3.377-1.247-4.228-3.681-4.228a5.644,5.644,0,0,0-3.864,1.46l.791-.791-.548,2.069c-.122.487-.365.669-.731.669a.656.656,0,0,1-.668-.578c.638-2.251,2.525-3.437,5.081-3.437,2.951,0,4.472,1.307,4.472,4.38v6.908c0,2.4.548,3.072,1.522,3.072a2.12,2.12,0,0,0,1.307-.517l.3.426a2.687,2.687,0,0,1-1.856.821C335.848,279.136,335.3,277.92,335.178,275.729Z"/>
      <path id="Path_21" data-name="Path 21" d="M346.559,278.406a4.646,4.646,0,0,0,2.312-.548l.213.427a3.926,3.926,0,0,1-2.616.851c-2.222,0-3.013-1.308-2.952-3.742,0-.578.031-1.126.031-1.947v-8.276H340.2v-.609l3.956-.152-.639.395.335-4.9h.669l-.122,5.112v10.5C344.4,277.554,345.129,278.406,346.559,278.406Zm2.251-13.965v.73h-4.837v-.73Z"/>
      <path id="Path_22" data-name="Path 22" d="M351.427,271.652c0-5.2,3.346-7.606,6.6-7.606s6.6,2.4,6.6,7.606-3.347,7.484-6.6,7.484S351.427,276.854,351.427,271.652Zm12.231,0c0-4.29-2.252-7-5.629-7s-5.629,2.708-5.629,7,2.252,6.876,5.629,6.876S363.658,275.942,363.658,271.652Z"/>
      <path id="Path_23" data-name="Path 23" d="M370.321,272.351v-1.49c0-2.13-.03-4.139-.091-5.69H367.4v-.609l3.409-.365.3.183.061,4.046v3.925c0,1.887.031,5.021.092,6.39H370.23C370.291,277.372,370.321,274.238,370.321,272.351Zm-2.8,5.781,3.042-.182h.275l3.255.182v.609h-6.572Zm3.2-9.888h.7l-.365.365c.851-2.616,2.981-4.563,5.233-4.563a2.234,2.234,0,0,1,2.008.821c0,.608-.3.851-.913.851-.547,0-.912-.3-1.521-.821l-.609-.517,1.491.152c-2.373,0-4.168,1.552-5.6,4.838h-.426Z"/>
    </g>
  </g>
</svg>
